<?xml version="1.0" standalone="yes"?>
<svg xmlns="http://www.w3.org/2000/svg" width="192" height="192">
<path style="fill:#010101; stroke:none;" d="M0 0L0 82L1 82C1.98578 44.5405 43.9116 1 82 1L60 0L0 0z"/>
<path style="fill:#3b4961; stroke:none;" d="M82 0.333328C63.0756 4.01306 45.5906 10.8279 31 24C20.9291 33.0918 12.8441 44.5741 7.66667 57C-21.8144 127.755 38.9973 206.709 116 190.667C129.967 187.757 143.77 181.724 155 172.833C218.076 122.898 195.995 18.3324 116 1.66667C105.716 -0.475861 92.4665 -1.70183 82 0.333328z"/>
<path style="fill:#010101; stroke:none;" d="M110 0L110 1C147.459 1.98581 191 43.9116 191 82L192 82L192 0L110 0z"/>
<path style="fill:#268a9f; stroke:none;" d="M94 24L94 25L97 25L94 24z"/>
<path style="fill:#20e1bc; stroke:none;" d="M95 24L79 52L73.3333 64L87.6667 89L98.1667 106.5L111 107L144 107L110.167 48L95 24z"/>
<path style="fill:#268a9f; stroke:none;" d="M93 26L94 27L93 26z"/>
<path style="fill:#289ca2; stroke:none;" d="M97 26L98 27L97 26M92 28L93 29L92 28M98 28L99 29L98 28z"/>
<path style="fill:#268a9f; stroke:none;" d="M99 29L100 30L99 29z"/>
<path style="fill:#289ca2; stroke:none;" d="M91 30L92 31L91 30z"/>
<path style="fill:#268a9f; stroke:none;" d="M100 31L101 32L100 31M89 33L90 34L89 33z"/>
<path style="fill:#289ca2; stroke:none;" d="M101 33L102 34L101 33z"/>
<path style="fill:#268a9f; stroke:none;" d="M102 34L103 35L102 34M88 35L89 36L88 35M103 36L104 37L103 36z"/>
<path style="fill:#289ca2; stroke:none;" d="M87 37L88 38L87 37M104 38L105 39L104 38M86 39L87 40L86 39z"/>
<path style="fill:#268a9f; stroke:none;" d="M106 41L107 42L106 41M84 42L85 43L84 42z"/>
<path style="fill:#289ca2; stroke:none;" d="M107 43L108 44L107 43M83 44L84 45L83 44M82 46L83 47L82 46z"/>
<path style="fill:#268a9f; stroke:none;" d="M109 46L110 47L109 46M81 47L82 48L81 47z"/>
<path style="fill:#289ca2; stroke:none;" d="M110 48L111 49L110 48M80 49L81 50L80 49M111 50L112 51L111 50M79 51L80 52L79 51z"/>
<path style="fill:#268a9f; stroke:none;" d="M112 51L113 52L112 51z"/>
<path style="fill:#289ca2; stroke:none;" d="M113 53L114 54L113 53z"/>
<path style="fill:#268a9f; stroke:none;" d="M77 54L78 55L77 54z"/>
<path style="fill:#289ca2; stroke:none;" d="M114 55L115 56L114 55M76 56L77 57L76 56z"/>
<path style="fill:#268a9f; stroke:none;" d="M115 56L116 57L115 56M116 58L117 59L116 58M74 59L75 60L74 59z"/>
<path style="fill:#289ca2; stroke:none;" d="M117 60L118 61L117 60M73 61L74 62L73 61z"/>
<path style="fill:#268a9f; stroke:none;" d="M118 61L119 62L118 61z"/>
<path style="fill:#289ca2; stroke:none;" d="M118 62L119 63L118 62z"/>
<path style="fill:#268a9f; stroke:none;" d="M72 63L48 106L94 107L97 105C90.2586 92.8012 82.0425 72.2056 72 63M119 63L120 64L119 63z"/>
<path style="fill:#289ca2; stroke:none;" d="M73 64L74 65L73 64M120 65L121 66L120 65M74 66L75 67L74 66M75.3333 67.6667L75.6667 68.3333L75.3333 67.6667M121 67L122 68L121 67z"/>
<path style="fill:#268a9f; stroke:none;" d="M122 68L123 69L122 68z"/>
<path style="fill:#289ca2; stroke:none;" d="M76 69L77 70L76 69z"/>
<path style="fill:#268a9f; stroke:none;" d="M123 70L124 71L123 70z"/>
<path style="fill:#289ca2; stroke:none;" d="M77 71L78 72L77 71M124 72L125 73L124 72M78 73L79 74L78 73M79.3333 74.6667L79.6667 75.3333L79.3333 74.6667z"/>
<path style="fill:#268a9f; stroke:none;" d="M126 75L127 76L126 75z"/>
<path style="fill:#289ca2; stroke:none;" d="M80 76L81 77L80 76z"/>
<path style="fill:#268a9f; stroke:none;" d="M127 77L128 78L127 77z"/>
<path style="fill:#289ca2; stroke:none;" d="M81 78L82 79L81 78M128 79L129 80L128 79M82 80L83 81L82 80M83.3333 81.6667L83.6667 82.3333L83.3333 81.6667z"/>
<path style="fill:#268a9f; stroke:none;" d="M130 82L131 83L130 82z"/>
<path style="fill:#289ca2; stroke:none;" d="M84 83L85 84L84 83z"/>
<path style="fill:#268a9f; stroke:none;" d="M131 84L132 85L131 84z"/>
<path style="fill:#289ca2; stroke:none;" d="M85 85L86 86L85 85M132 86L133 87L132 86M86 87L87 88L86 87M87.3333 88.6667L87.6667 89.3333L87.3333 88.6667z"/>
<path style="fill:#268a9f; stroke:none;" d="M134 89L135 90L134 89z"/>
<path style="fill:#289ca2; stroke:none;" d="M88 90L89 91L88 90M135 91L136 92L135 91M89 92L90 93L89 92M90.3333 93.6667L90.6667 94.3333L90.3333 93.6667M136 93L137 94L136 93z"/>
<path style="fill:#268a9f; stroke:none;" d="M137 94L138 95L137 94z"/>
<path style="fill:#289ca2; stroke:none;" d="M91.3333 95.6667L91.6667 96.3333L91.3333 95.6667z"/>
<path style="fill:#268a9f; stroke:none;" d="M138 96L139 97L138 96z"/>
<path style="fill:#289ca2; stroke:none;" d="M92 97L93 98L92 97M139 98L140 99L139 98M93 99L94 100L93 99M94.3333 100.667L94.6667 101.333L94.3333 100.667M140 100L141 101L140 100z"/>
<path style="fill:#268a9f; stroke:none;" d="M141 101L142 102L141 101z"/>
<path style="fill:#289ca2; stroke:none;" d="M95 102L96 103L95 102z"/>
<path style="fill:#268a9f; stroke:none;" d="M142 103L143 104L142 103z"/>
<path style="fill:#3b4961; stroke:none;" d="M95 104L95 110C98.2474 107.899 98.2474 106.101 95 104z"/>
<path style="fill:#289ca2; stroke:none;" d="M143 105L144 106L143 105M48 106L48 107L93 107L80 106L48 106z"/>
<path style="fill:#268a9f; stroke:none;" d="M47 107L48 108L47 107z"/>
<path style="fill:#20e1bc; stroke:none;" d="M48 107C51.6886 121.017 64.244 137.72 72 150C80.0568 144.936 86.5447 127.533 91.1667 119C92.6527 116.257 97.587 110.503 93.6667 107.5C91.2559 105.653 83.9561 107 81 107L48 107z"/>
<path style="fill:#268a9f; stroke:none;" d="M72 150L72 151L106 151L118.833 150.5L127.167 137L144 107L111 107C107.565 107 101.03 105.741 98 107.5C95.0177 109.232 93.3491 115.116 91.6667 118C86.3296 127.149 80.4278 143.82 72 150z"/>
<path style="fill:#289ca2; stroke:none;" d="M94 108L95 109L94 108z"/>
<path style="fill:#010101; stroke:none;" d="M0 110L0 192L82 192L82 191C52.2555 190.217 23.4007 165.075 10.1667 140C5.66657 131.474 5.06233 116.961 0 110z"/>
<path style="fill:#289ca2; stroke:none;" d="M49 110L50 111L49 110M95.3333 110.667L95.6667 111.333L95.3333 110.667z"/>
<path style="fill:#010101; stroke:none;" d="M191 110C190.014 147.46 148.088 191 110 191L110 192L192 192L192 132L191 110z"/>
<path style="fill:#268a9f; stroke:none;" d="M50 112L51 113L50 112M51 114L52 115L51 114z"/>
<path style="fill:#289ca2; stroke:none;" d="M52 115L53 116L52 115M92 116L93 117L92 116M53 117L54 118L53 117M91 118L92 119L91 118z"/>
<path style="fill:#268a9f; stroke:none;" d="M54 119L55 120L54 119M55 121L56 122L55 121z"/>
<path style="fill:#289ca2; stroke:none;" d="M56 122L57 123L56 122M88 123L89 124L88 123M57 124L58 125L57 124M87 125L88 126L87 125z"/>
<path style="fill:#268a9f; stroke:none;" d="M58 126L59 127L58 126M59 128L60 129L59 128z"/>
<path style="fill:#289ca2; stroke:none;" d="M85 128L86 129L85 128M60 129L61 130L60 129M84 130L85 131L84 130M61 131L62 132L61 131M83 132L84 133L83 132z"/>
<path style="fill:#268a9f; stroke:none;" d="M62 133L63 134L62 133z"/>
<path style="fill:#289ca2; stroke:none;" d="M81 135L82 136L81 135M64 136L65 137L64 136M80 137L81 138L80 137z"/>
<path style="fill:#268a9f; stroke:none;" d="M65 138L66 139L65 138M66 140L67 141L66 140z"/>
<path style="fill:#289ca2; stroke:none;" d="M77 142L78 143L77 142M68 143L69 144L68 143M76 144L77 145L76 144z"/>
<path style="fill:#268a9f; stroke:none;" d="M69 145L70 146L69 145M70 147L71 148L70 147z"/>
<path style="fill:#289ca2; stroke:none;" d="M73 149L74 150L73 149z"/>
</svg>
